<svg width="600" height="400" viewBox="0 0 600 400" xmlns="http://www.w3.org/2000/svg">
  <!-- Tank 1 -->
  <rect x="50" y="100" width="60" height="200" rx="10" ry="10" fill="#0047AB" />
  <rect x="50" y="130" width="60" height="140" fill="#0047AB" />
  <line x1="80" y1="130" x2="80" y2="300" stroke="white" stroke-width="4" />

  <!-- Pressure Gauge -->
  <circle cx="79" cy="80" r="20" fill="#0047AB" stroke="#0047AB" stroke-width="2" />
  <line x1="79" y1="80" x2="60" y2="70" stroke="#0047AB" stroke-width="2" />
  
  <!-- Pipe Connecting Tanks -->
  <rect x="110" y="140" width="70" height="10" fill="#0047AB" />
  <rect x="180" y="140" width="70" height="10" fill="#0047AB" />

  <!-- Tank 2 -->
  <rect x="180" y="100" width="60" height="200" rx="10" ry="10" fill="#0047AB" />
  <rect x="180" y="130" width="60" height="40" fill="#0047AB" />
  <rect x="180" y="170" width="60" height="40" fill="#0047AB" />
  <rect x="180" y="210" width="60" height="60" fill="#0047AB" />
  <line x1="210" y1="130" x2="210" y2="270" stroke="white" stroke-width="4" />

    <!-- Pipe Connecting Tanks -->
  <rect x="250" y="140" width="70" height="10" fill="#0047AB" />
  <rect x="180" y="140" width="70" height="10" fill="#0047AB" />
  
  <!-- Tank 3 -->
  <rect x="310" y="100" width="60" height="200" rx="10" ry="10" fill="#0047AB" />
  <rect x="310" y="130" width="60" height="40" fill="#0047AB" />
  <rect x="310" y="170" width="60" height="40" fill="#0047AB" />
  <rect x="310" y="210" width="60" height="60" fill="#0047AB" />
  <line x1="340" y1="130" x2="340" y2="270" stroke="white" stroke-width="4" />

  <!-- Meters on top -->
  <rect x="180" y="60" width="60" height="30" rx="3" ry="3" fill="#0047AB" stroke="black" />


  <rect x="310" y="60" width="60" height="30" rx="3" ry="3" fill="#0047AB" stroke="black" />
  
</svg>
