<?xml version="1.0" encoding="UTF-8"?>
<svg version="1.1" xmlns="http://www.w3.org/2000/svg" width="1024" height="1024">
<path d="M0 0 C337.92 0 675.84 0 1024 0 C1024 337.92 1024 675.84 1024 1024 C686.08 1024 348.16 1024 0 1024 C0 686.08 0 348.16 0 0 Z " fill="#0047AB" transform="translate(0,0)"/>
<path d="M0 0 C337.92 0 675.84 0 1024 0 C1024 337.92 1024 675.84 1024 1024 C686.08 1024 348.16 1024 0 1024 C0 686.08 0 348.16 0 0 Z M259.375 65.75 C258.50439941 66.00821533 257.63379883 66.26643066 256.73681641 66.5324707 C218.90031365 78.06579941 185.89263182 102.68796182 167.03613281 137.91210938 C163.67640711 144.68222582 161.28148303 151.8098255 159 159 C158.7740918 159.67691895 158.54818359 160.35383789 158.31542969 161.05126953 C155.4333921 169.90324211 154.74276524 178.43597216 154.8046875 187.71484375 C154.80947617 188.91599823 154.81426483 190.11715271 154.81919861 191.35470581 C154.96633667 209.67974702 155.72958626 227.99370644 156.43490601 246.30387878 C156.56442361 249.67506922 156.69207034 253.04632639 156.81933594 256.41760254 C160.00046977 340.43587526 163.82263674 424.44581715 168.51171875 514.90332031 C170.02437984 544.04302275 171.4159867 573.18844522 172.80187988 602.33440018 C172.96650377 605.79638571 173.13135115 609.25836055 173.29626906 612.72033209 C174.59155221 639.91252765 175.88166657 667.10490175 177.09765625 694.30078125 C178.03251694 715.20210389 178.9856628 736.10236335 180 757 C180.07007389 758.44374496 180.07007389 758.44374496 180.14156342 759.91665649 C180.79319024 773.30633818 181.47302423 786.6942951 182.18502808 800.0809021 C182.39406498 804.02004855 182.59581108 807.95945637 182.790802 811.89932251 C183.0183292 816.48751649 183.26184802 821.0745931 183.51741219 825.66130829 C183.60814672 827.33522337 183.69350523 829.00944084 183.77279472 830.68393707 C184.72989273 850.70982158 189.68627858 866.33638761 204 881 C202.94941406 881.07476563 201.89882812 881.14953125 200.81640625 881.2265625 C192.38191499 881.95907908 185.24844773 882.71158352 179 889 C172.9935229 896.40060519 170.68904841 902.67928118 170.6640625 912.10546875 C170.6540773 913.4243383 170.6540773 913.4243383 170.64389038 914.76985168 C170.63378499 916.6282035 170.62907271 918.48659144 170.62939453 920.3449707 C170.62504106 923.16094326 170.58875452 925.97532209 170.55078125 928.79101562 C170.47891601 940.11205667 170.91947531 949.07897217 178.125 958.3125 C186.0189893 966.25139192 193.65029829 967.53631389 204.4812488 967.65803888 C207.55828709 967.66431662 210.63468604 967.64640223 213.71166992 967.62818909 C215.94882113 967.63323627 218.1859683 967.64046642 220.42310619 967.64968723 C226.56099574 967.66861167 232.69848671 967.65637423 238.83636618 967.6389643 C244.77898026 967.62696831 250.72153672 967.63846565 256.66414288 967.6492356 C269.5660779 967.6716743 282.4678818 967.66570718 295.36981693 967.6477995 C306.66056816 967.63222542 317.95127343 967.62638109 329.24203491 967.6301403 C329.99129622 967.63037711 330.74055753 967.63061391 331.51252373 967.63085788 C334.55410364 967.63183282 337.59568353 967.63285364 340.6372634 967.63394299 C369.16323953 967.64402357 397.68913496 967.62576822 426.21509211 967.59422263 C451.55260298 967.56636245 476.89001789 967.56139868 502.22753906 967.57641602 C508.71593724 967.58023853 515.20433543 967.58403335 521.69273376 967.5875864 C522.49155983 967.58802422 523.29038589 967.58846203 524.11341881 967.58891311 C545.29226789 967.60015559 566.47110992 967.59280203 587.6499567 967.57970566 C589.92912989 967.5783171 592.20830307 967.57693639 594.48747627 967.57556724 C595.999385 967.57465785 597.51129372 967.57373518 599.02320244 967.57279913 C610.30619849 967.56600631 621.58916681 967.56866092 632.87216187 967.57574654 C645.70286217 967.58371615 658.53346591 967.57713566 671.36414504 967.5515715 C677.911154 967.53888236 684.4580359 967.53294058 691.00505447 967.54411316 C696.99820159 967.55414748 702.99102814 967.54571255 708.98413622 967.52253198 C711.15223237 967.51736909 713.3203572 967.51894096 715.48844087 967.52792663 C718.43695659 967.53913026 721.38439011 967.52567296 724.33283997 967.50615788 C725.17326658 967.51523669 726.0136932 967.52431551 726.87958729 967.53366944 C734.79179649 967.43168848 741.92751021 965.15005958 747.875 959.8125 C754.19132719 952.90029289 756.14662097 944.70669922 756.203125 935.59375 C756.20882507 934.87320435 756.21452515 934.15265869 756.22039795 933.41027832 C756.2298303 931.88388526 756.23637491 930.35747201 756.24023438 928.83105469 C756.24985159 926.53542601 756.28085274 924.2407279 756.3125 921.9453125 C756.40175998 909.73772653 755.82641732 898.29926111 747 889 C740.17696143 882.35651508 732.09105321 881.48463335 723 881 C723.50789062 880.41734375 724.01578125 879.8346875 724.5390625 879.234375 C741.11058103 859.49751023 742.11450155 837.47543086 743.43359375 812.859375 C743.5606194 810.56896952 743.68802435 808.27858505 743.81578064 805.98822021 C744.22153782 798.65939099 744.61286974 791.32983444 745 784 C745.06400246 782.78849274 745.12800491 781.57698547 745.19394684 780.32876587 C746.11174536 762.90735516 746.99538207 745.48425383 747.87078857 728.06066895 C748.19174417 721.68099955 748.51495079 715.3014442 748.83789062 708.921875 C750.18289454 682.35224846 750.18289454 682.35224846 751.50537109 655.78149414 C753.01018921 625.29553176 754.64202464 594.8162988 756.26568604 564.33648682 C756.65525847 557.02316703 757.0444687 549.70982798 757.43359375 542.39648438 C757.49075089 541.32240102 757.49075089 541.32240102 757.54906273 540.22661901 C757.96201584 532.4659415 758.37433704 524.7052312 758.78491211 516.94442749 C758.82057691 516.27031354 758.8562417 515.59619959 758.89298725 514.90165794 C759.06784867 511.59611705 759.24262295 508.29057157 759.41731262 504.98502159 C759.77694479 498.18661639 760.14014545 491.38842496 760.50893402 484.59051037 C760.70450286 480.97565238 760.89707288 477.3606393 761.08882141 473.74557686 C761.17308075 472.17024752 761.25868197 470.59498916 761.34587097 469.01981926 C761.88149932 459.33471842 762.09837841 449.69830788 762 440 C781.68583543 447.739813 795.04844975 458.28088694 803.8125 478 C808.73594165 489.56084591 808.305142 501.83852598 808.31884766 514.14916992 C808.32815907 516.07195451 808.33832953 517.99473509 808.34928894 519.91751099 C808.37646623 525.10883435 808.39170179 530.30013075 808.40471697 535.49150634 C808.42040146 540.92741833 808.44717461 546.36327572 808.4727478 551.79914856 C808.5194417 562.08001691 808.55623115 572.36089564 808.58942068 582.64181548 C808.62770856 594.35167608 808.67710118 606.06148172 808.72740483 617.77129591 C808.83058498 641.84748981 808.91989047 665.92371906 809 690 C807.72552002 690.14026611 806.45104004 690.28053223 805.13793945 690.42504883 C801.75116377 690.79778898 799.7491174 691.31286198 797.1875 693.6875 C796.37345703 694.40486328 796.37345703 694.40486328 795.54296875 695.13671875 C791.11955147 700.47841506 790.56836859 705.22888565 790.64355469 711.86572266 C790.64151031 712.73845825 790.63946594 713.61119385 790.63735962 714.51037598 C790.63435441 717.39515209 790.65285373 720.2793541 790.671875 723.1640625 C790.67493939 725.19591125 790.67681033 727.22776211 790.67755127 729.25961304 C790.6821563 733.53171784 790.69656643 737.8036344 790.71875 742.07568359 C790.74664114 747.46569703 790.7578443 752.85556146 790.76255035 758.2456398 C790.78413251 780.51347446 790.91614665 802.75464433 792 825 C790.35837891 825.16628906 790.35837891 825.16628906 788.68359375 825.3359375 C784.8189971 825.70081138 784.8189971 825.70081138 782.0625 828.625 C779.64800107 832.57599825 779.25584418 834.45238113 780 839 C781.79562405 841.75329021 783.05254922 843.52627461 786 845 C788.98876134 845.11440763 791.95473851 845.16787795 794.94433594 845.17700195 C795.87133301 845.18357315 796.79833008 845.19014435 797.75341797 845.19691467 C800.83040441 845.21667356 803.90734198 845.22831645 806.984375 845.23828125 C808.03417793 845.24235678 809.08398087 845.2464323 810.16559601 845.25063133 C815.72270004 845.27150379 821.27977929 845.28580004 826.83691406 845.29516602 C832.57821728 845.30622884 838.31913276 845.34062417 844.06029892 845.38033772 C848.4732536 845.40648018 852.88611562 845.41485579 857.29914093 845.41844749 C859.41543444 845.4233201 861.53172362 845.43495318 863.64794159 845.45348549 C866.61163554 845.47782456 869.57432271 845.47692122 872.53808594 845.4699707 C873.41104309 845.48278076 874.28400024 845.49559082 875.18341064 845.50878906 C880.57223644 845.4627698 883.78100824 844.68459691 888 841 C889.21260877 837.36217368 889.39544552 834.82264001 889 831 C886.08207303 827.27153776 884.6395669 826.15989173 880 825 C880 818.4 880 811.8 880 805 C881.85625 805.03480469 883.7125 805.06960938 885.625 805.10546875 C888.08332425 805.1336175 890.54165833 805.16091649 893 805.1875 C894.22074219 805.21263672 895.44148437 805.23777344 896.69921875 805.26367188 C904.51277271 805.32702502 911.06494171 805.3478369 917.27734375 800.0625 C917.82519531 799.381875 918.37304688 798.70125 918.9375 798 C919.50339844 797.319375 920.06929687 796.63875 920.65234375 795.9375 C923.52133483 791.81280557 923.19322488 787.49816409 923.23828125 782.67578125 C923.246353 781.85554977 923.25442474 781.0353183 923.26274109 780.19023132 C923.27656868 778.45277002 923.28729676 776.71528171 923.29516602 774.9777832 C923.30666432 773.20979801 923.32708205 771.44184693 923.35668945 769.67407227 C923.39959602 767.11190331 923.41556841 764.55076598 923.42578125 761.98828125 C923.44328934 761.20777908 923.46079742 760.42727692 923.47883606 759.62312317 C923.45684696 753.98221958 922.1461607 749.71235025 919 745 C918.20255119 744.33183762 918.20255119 744.33183762 917.38899231 743.650177 C915.3063143 741.17587435 915.62122928 739.16499888 915.61523438 735.97143555 C915.60512329 734.72972092 915.59501221 733.48800629 915.58459473 732.20866394 C915.58615067 731.54542807 915.5877066 730.88219219 915.58930969 730.19885826 C915.5937917 728.11735183 915.57977672 726.03669397 915.56091309 723.95527649 C915.52412718 719.53269824 915.51042922 715.11020868 915.5 710.6875 C915.48790431 705.57143892 915.46623786 700.45579053 915.41999817 695.33991432 C915.40647569 693.29583439 915.41059079 691.25228241 915.41540527 689.20817566 C915.40529419 687.95700455 915.39518311 686.70583344 915.38476562 685.41674805 C915.38271118 684.3199321 915.38065674 683.22311615 915.37854004 682.09306335 C914.79228467 677.30275107 912.98360285 674.03677057 909.6875 670.5625 C907.08565813 668.75942702 907.08565813 668.75942702 904 668.9375 C900.27101932 670.25818066 897.87738205 671.49825784 896 675 C895.28600775 679.67481934 895.41841578 684.33586673 895.51171875 689.05078125 C895.52105164 690.43367736 895.52816551 691.81659007 895.53315735 693.19950867 C895.55219052 696.82819775 895.6012568 700.45587604 895.65667725 704.08416748 C895.7079509 707.79099861 895.73068853 711.49799411 895.75585938 715.20507812 C895.80938187 722.47056488 895.8972845 729.73501167 896 737 C890.72 737 885.44 737 880 737 C880.06960938 733.44025391 880.06960938 733.44025391 880.140625 729.80859375 C880.17188413 727.49180232 880.19613547 725.17503502 880.21972656 722.8581543 C880.23975347 721.25680909 880.26698354 719.6555362 880.30175781 718.05444336 C880.35067419 715.74314463 880.37305711 713.43281846 880.390625 711.12109375 C880.41127014 710.41351425 880.43191528 709.70593475 880.45318604 708.97691345 C880.45585967 702.95772506 878.65830668 698.97824324 874.6585083 694.49705505 C870.95922424 691.04661811 867.88806509 690.54376109 863 690 C863.00276538 688.95215804 863.00553076 687.90431608 863.00837994 686.82472134 C863.07509237 661.28316284 863.12433119 635.7416157 863.15543652 610.19998837 C863.17088011 597.84805637 863.19192157 585.49618207 863.22631836 573.14428711 C863.2562976 562.37356306 863.27559321 551.60288081 863.28226548 540.83211619 C863.28616332 535.13346178 863.29527124 529.43492691 863.31719017 523.73631096 C863.33769016 518.36260071 863.34380669 512.98905822 863.33932304 507.61531258 C863.34014224 505.65267141 863.34602678 503.69002411 863.35761642 501.72741699 C863.5471895 467.94171357 852.16483607 440.58650471 829 416 C828.38898437 415.32453125 827.77796875 414.6490625 827.1484375 413.953125 C813.30065031 399.22143651 791.14387241 386.33624083 770.76904297 384.44311523 C769.87426239 384.35851547 768.97948181 384.27391571 768.05758667 384.18675232 C767.37858307 384.12512405 766.69957947 384.06349579 766 384 C766.04422089 383.23835541 766.08844177 382.47671082 766.13400269 381.69198608 C768.08549316 347.52936922 769.42027168 313.33754745 770.81634593 279.14882064 C771.09087029 272.43622307 771.37075757 265.72385652 771.6517421 259.0115267 C771.92708245 252.42799347 772.19854076 245.8443071 772.46714294 239.26049554 C772.62578741 235.3735111 772.78584787 231.48660005 772.94995499 227.59984207 C773.54254742 213.53217423 774.10645661 199.46941587 774.14868164 185.38696289 C774.15353388 184.43091219 774.15838612 183.47486149 774.16338539 182.48983955 C774.14006957 175.29334219 773.28684825 168.75901641 771.3125 161.8125 C771.03486816 160.76626465 770.75723633 159.7200293 770.47119141 158.64208984 C769.68544193 155.74867235 768.85460626 152.87370129 768 150 C767.64035156 148.74832031 767.28070312 147.49664062 766.91015625 146.20703125 C758.34844728 120.71575436 736.45939312 97.12709247 714 83 C713.39639648 82.61650391 712.79279297 82.23300781 712.17089844 81.83789062 C693.5966617 70.23263753 673.53447515 64.34329368 652 61 C650.91598058 60.82870701 649.83196115 60.65741402 648.71509266 60.48093033 C642.39781911 59.70612425 636.04282954 59.85503589 629.68864441 59.85955811 C628.2309762 59.85697133 626.77330871 59.8539573 625.31564218 59.8505547 C621.32283635 59.84251774 617.33004853 59.84069698 613.33723557 59.83995724 C609.02544751 59.83810084 604.71366868 59.83055043 600.40188599 59.82382202 C590.9778321 59.81026032 581.55378247 59.80421697 572.12972045 59.79981136 C566.23854657 59.79704453 560.34737433 59.7928063 554.45620155 59.78830719 C538.12700981 59.77611592 521.79781936 59.76581725 505.46862316 59.7624321 C504.42418181 59.76221253 503.37974047 59.76199297 502.30364938 59.76176675 C500.73334737 59.76143933 500.73334737 59.76143933 499.13132209 59.7611053 C497.01015548 59.76066184 494.88898887 59.76021528 492.76782227 59.75976562 C491.71566193 59.7595442 490.6635016 59.75932277 489.57945762 59.75909463 C472.55025166 59.75515094 455.52108861 59.73770939 438.49189921 59.7144061 C420.98427038 59.69064273 403.47666302 59.67822793 385.9690178 59.67706418 C376.14895529 59.67615007 366.32894864 59.67046472 356.5089016 59.65224457 C348.14262879 59.63677595 339.77642911 59.63176263 331.41014471 59.63998267 C327.14854442 59.64386577 322.88709108 59.64307552 318.62550926 59.62892532 C298.42360486 59.56568569 278.90543448 59.85520503 259.375 65.75 Z " fill="#FCFCFC" transform="translate(0,0)"/>
<path d="M0 0 C2.38173962 -0.3719368 2.38173962 -0.3719368 5.43241882 -0.36749268 C6.58620529 -0.37306183 7.73999176 -0.37863098 8.92874146 -0.3843689 C10.20095551 -0.37515411 11.47316956 -0.36593933 12.78393555 -0.35644531 C14.1324629 -0.35723589 15.48099003 -0.35933224 16.82951355 -0.36264038 C20.49927763 -0.36778627 24.16876252 -0.35421248 27.83848166 -0.33711338 C31.67892009 -0.32209347 35.51935463 -0.32325166 39.3598175 -0.32244873 C45.81536631 -0.31875223 52.27080905 -0.30377126 58.72631836 -0.28125 C67.00082843 -0.2524408 75.27525277 -0.24203256 83.54980755 -0.2375679 C90.67031848 -0.2335784 97.79081092 -0.22107297 104.91130853 -0.20722103 C107.19553285 -0.2031316 109.47975652 -0.20020095 111.76398277 -0.19742584 C115.36315859 -0.19250922 118.96228333 -0.18226635 122.56143379 -0.16798782 C124.5054861 -0.16134999 126.44955284 -0.15946725 128.39361572 -0.15774536 C129.56150131 -0.15203522 130.7293869 -0.14632507 131.93266296 -0.14044189 C133.44557686 -0.1359799 133.44557686 -0.1359799 134.98905468 -0.13142776 C138.34408629 0.01501937 141.67552557 0.52507508 145 1 C145 6.94 145 12.88 145 19 C143.453125 19.226875 141.90625 19.45375 140.3125 19.6875 C136.80270435 20.4143513 134.92382348 21.0502765 131.875 23.0625 C129.29121893 27.11042368 128.98406201 30.32668524 130 35 C131.70611088 38.20653576 131.70611088 38.20653576 135 40 C137.518516 40.4553291 137.518516 40.4553291 140.1953125 40.625 C141.09523926 40.69976562 141.99516602 40.77453125 142.92236328 40.8515625 C143.6079834 40.90054688 144.29360352 40.94953125 145 41 C145.0093457 42.00264893 145.01869141 43.00529785 145.02832031 44.03833008 C145.06862288 47.80910371 145.13448585 51.57909544 145.20751953 55.34936523 C145.23549841 56.97165778 145.25682603 58.59408081 145.27099609 60.21655273 C145.40686446 74.9039234 147.5774603 87.060145 158.03515625 98.16015625 C166.77521252 106.40694656 176.93240178 111.09153071 189.02734375 111.4140625 C190.95610352 111.47207031 190.95610352 111.47207031 192.92382812 111.53125 C194.26171418 111.56269499 195.59960489 111.59394259 196.9375 111.625 C198.30275756 111.66324342 199.66799264 111.7022987 201.03320312 111.7421875 C204.3553354 111.83609937 207.67746741 111.92177787 211 112 C211.0093457 112.589021 211.01869141 113.17804199 211.02832031 113.78491211 C211.08263875 116.50323016 211.1661584 119.21993848 211.25 121.9375 C211.26417969 122.86369141 211.27835938 123.78988281 211.29296875 124.74414062 C211.54977413 132.06309398 212.89386616 138.4482324 217.82421875 144.0859375 C218.43910156 144.51132812 219.05398438 144.93671875 219.6875 145.375 C220.59048828 146.03628906 220.59048828 146.03628906 221.51171875 146.7109375 C223.87967832 147.93766695 226.12559008 148.75398599 228.65551758 149.58056641 C229.46837723 149.84737213 230.28123688 150.11417786 231.11872864 150.3890686 C231.73954819 150.59067596 232.36036774 150.79228333 233 151 C233.00238835 151.83783775 233.00477671 152.67567551 233.00723743 153.53890228 C233.06640658 173.93746262 233.141969 194.335905 233.23571491 214.73433685 C233.28065582 224.59892203 233.32007445 234.46347123 233.34643555 244.328125 C233.3694294 252.92744726 233.40284299 261.52665555 233.44870156 270.12588739 C233.47261503 274.67795146 233.49135611 279.22990278 233.49761391 283.7820282 C233.50367324 288.06991784 233.5237037 292.35751906 233.55427551 296.64530182 C233.56304215 298.21577703 233.56678117 299.78628996 233.56500816 301.35678864 C233.54199498 315.88644279 233.54199498 315.88644279 241 328 C242.02303223 328.49081055 243.04606445 328.98162109 244.10009766 329.48730469 C247 332 247 332 247.527771 334.13439941 C247.69615187 336.92538102 247.67375447 339.65834642 247.5859375 342.453125 C247.57744781 343.46848328 247.56895813 344.48384155 247.56021118 345.52996826 C247.52664007 348.77106101 247.45135063 352.00966014 247.375 355.25 C247.34490534 357.44788072 247.31752867 359.64580046 247.29296875 361.84375 C247.22683692 367.23004463 247.12404253 372.61476535 247 378 C234.4489248 379.08443966 221.95764029 379.13585316 209.36743164 379.11352539 C207.11894227 379.1132428 204.87045281 379.11340266 202.6219635 379.1139679 C196.56105339 379.11425306 190.50016334 379.10840193 184.43925786 379.10139394 C178.08918057 379.09511345 171.73910274 379.0945529 165.38902283 379.09336853 C154.74477758 379.09062045 144.10054019 379.08438786 133.45629883 379.07543945 C122.50024451 379.06623858 111.54419218 379.05917088 100.58813477 379.05493164 C99.91104063 379.05466892 99.23394649 379.05440619 98.53633434 379.05413551 C95.13902563 379.05283032 91.74171689 379.05156665 88.34440815 379.05032361 C60.22960037 379.03998308 32.11480064 379.02231785 4 379 C3.38692468 372.00031881 2.84224219 365.01149085 2.52856445 357.99194336 C2.49055159 357.18212824 2.45253872 356.37231312 2.41337395 355.53795815 C2.29045919 352.90951072 2.17059273 350.2809343 2.05078125 347.65234375 C1.96377489 345.77814281 1.87655685 343.90395168 1.78913879 342.0297699 C1.61058687 338.19703539 1.43311763 334.364253 1.25640869 330.53143311 C1.02398281 325.50134819 0.78560631 320.47156681 0.54443359 315.44189453 C0.0833597 305.81583316 -0.36809672 296.1893454 -0.8125 286.5625 C-0.85324394 285.68015182 -0.89398788 284.79780365 -0.93596649 283.88871765 C-2.95018453 240.16531719 -4.60378313 196.42816936 -6.24926758 152.68969727 C-6.27449899 152.01903949 -6.29973039 151.34838171 -6.32572639 150.65740097 C-6.59983668 143.36866105 -6.87263288 136.07987377 -7.14317322 128.79100037 C-7.60785674 116.29150564 -8.08474708 103.79273556 -8.59277344 91.29492188 C-8.73334564 87.79679898 -8.8736435 84.29866517 -9.01389694 80.80052948 C-9.1425197 77.63023692 -9.27604328 74.46017854 -9.40982056 71.2901001 C-9.81570052 61.37330441 -10.08793884 51.46559581 -10.12744141 41.54003906 C-10.13419073 40.6014996 -10.14094006 39.66296013 -10.14789391 38.69598007 C-10.13810153 25.42087478 -7.4717225 11.20758375 0 0 Z " fill="#FCFCFC" transform="translate(185,150)"/>
<path d="M0 0 C51.48 0 102.96 0 156 0 C161.299611 12.71906639 164.23107309 22.34464913 164.13598633 35.84228516 C164.13221639 36.79645639 164.12844645 37.75062763 164.12456226 38.73371315 C164.03713364 50.54840163 163.52286115 62.34601442 163.01171875 74.1484375 C162.9073088 76.63614395 162.8032734 79.12386615 162.69958496 81.61160278 C162.45252456 87.51237705 162.20115337 93.41295496 161.94747245 99.31344807 C161.74420722 104.04409049 161.54311284 108.77482096 161.34341431 113.50561523 C159.67555578 153.00898027 157.94976221 192.50942394 156 232 C155.44258118 232.02178314 154.88516235 232.04356628 154.31085205 232.06600952 C151.73297247 232.17041908 149.15559522 232.2843841 146.578125 232.3984375 C145.70172363 232.43251709 144.82532227 232.46659668 143.92236328 232.50170898 C115.22544891 233.8133408 90.37690173 247.77994086 70.53515625 268.15625 C51.02418833 290.04220477 36.31026054 319.77551205 36.72265625 349.60546875 C37.30399157 354.62460325 39.57613556 357.81494826 43.46875 361.0546875 C47.85667805 363.8572305 52.816945 364.42391873 57.875 365.25 C59.30779297 365.50910156 59.30779297 365.50910156 60.76953125 365.7734375 C72.31312627 367.87778877 72.31312627 367.87778877 83 364 C89.01519778 357.98480222 90.01156735 351.36731837 91.375 343.25 C94.5841248 325.44069196 102.62274474 310.92883526 117.1875 299.8125 C128.35765383 292.11056176 139.26842242 287 153 287 C151.68 317.36 150.36 347.72 149 379 C117.16849857 379.02202638 85.33700451 379.04049785 53.50549776 379.05106533 C49.75146789 379.05231611 45.99743804 379.05361042 42.2434082 379.05493164 C41.12232113 379.05532511 41.12232113 379.05532511 39.97858583 379.05572652 C27.86098831 379.06008335 15.74339551 379.06797097 3.6258008 379.0771528 C-8.79869008 379.08648897 -21.22317847 379.09205553 -33.64767271 379.09408849 C-41.32043554 379.0954638 -48.99318503 379.09981478 -56.66594375 379.10791647 C-62.53947428 379.11380417 -68.41299787 379.11445905 -74.28653145 379.11310768 C-76.70333565 379.11338421 -79.12014032 379.11539191 -81.53694153 379.11920547 C-84.82090633 379.12413589 -88.1048127 379.12300071 -91.38877869 379.12025452 C-92.84351504 379.12462378 -92.84351504 379.12462378 -94.32764 379.12908131 C-95.20047994 379.12709026 -96.07331988 379.12509921 -96.97260952 379.12304783 C-97.73167046 379.12342755 -98.4907314 379.12380727 -99.27279419 379.1241985 C-101 379 -101 379 -102 378 C-102.13436664 376.59046344 -102.20156381 375.17442479 -102.24047852 373.7590332 C-102.27909752 372.40676384 -102.27909752 372.40676384 -102.3184967 371.0271759 C-102.40256318 366.88519771 -102.46856339 362.74340584 -102.51489258 358.60083008 C-102.54650554 356.41726635 -102.59423143 354.23387359 -102.65844727 352.05102539 C-102.74979397 348.90445329 -102.78852413 345.76097994 -102.81640625 342.61328125 C-102.85455948 341.64119217 -102.89271271 340.66910309 -102.93202209 339.66755676 C-102.9129044 332.98315104 -102.9129044 332.98315104 -100.24703979 330.1121521 C-98.09741211 328.52026367 -98.09741211 328.52026367 -95.95323181 327.22624207 C-90.80361678 323.99330549 -89.36367243 318.59160194 -88 313 C-87.70959275 309.57683802 -87.70959275 309.57683802 -87.75949097 306.0080719 C-87.75778212 305.34055544 -87.75607327 304.67303899 -87.75431263 303.98529476 C-87.75104139 301.76816038 -87.76198187 299.5513346 -87.77294922 297.33422852 C-87.77351385 295.73715726 -87.77319577 294.14008548 -87.77206421 292.54301453 C-87.77149171 288.22120701 -87.78322942 283.8995111 -87.79721212 279.57772946 C-87.80973656 275.05605212 -87.81089133 270.53437206 -87.81326294 266.01268005 C-87.81947267 257.45639087 -87.83587664 248.90015295 -87.85596192 240.34388632 C-87.87833668 230.60026482 -87.88931832 220.85664084 -87.89935279 211.11300004 C-87.92024331 191.07530477 -87.95540944 171.03765562 -88 151 C-87.24581787 150.73662842 -86.49163574 150.47325684 -85.71459961 150.2019043 C-84.72468018 149.85039307 -83.73476074 149.49888184 -82.71484375 149.13671875 C-81.73378662 148.79084717 -80.75272949 148.44497559 -79.74194336 148.08862305 C-74.46352666 145.99295391 -71.35788093 143.20417346 -68.88671875 138.015625 C-66.5963894 132.6841005 -66.33792605 127.68066964 -66.25 121.9375 C-66.20552734 120.49600586 -66.20552734 120.49600586 -66.16015625 119.02539062 C-66.09024948 116.68351369 -66.03716864 114.34258586 -66 112 C-65.27522461 111.98541748 -64.55044922 111.97083496 -63.80371094 111.95581055 C-60.45199502 111.88036228 -57.10117254 111.78402834 -53.75 111.6875 C-52.61046875 111.66494141 -51.4709375 111.64238281 -50.296875 111.61914062 C-36.6118811 111.19148457 -23.63433119 108.35735142 -13.25 98.875 C-5.38696019 90.36775934 -0.76725087 80.28867868 -0.5859375 68.7578125 C-0.56657135 67.98944061 -0.5472052 67.22106873 -0.5272522 66.42941284 C-0.46785883 63.99471862 -0.42123372 61.55997607 -0.375 59.125 C-0.33678307 57.46612614 -0.29772921 55.80727133 -0.2578125 54.1484375 C-0.16219093 50.09911458 -0.07801299 46.04969887 0 42 C0.92232422 41.91782227 0.92232422 41.91782227 1.86328125 41.83398438 C2.67152344 41.75470703 3.47976563 41.67542969 4.3125 41.59375 C5.11300781 41.51833984 5.91351562 41.44292969 6.73828125 41.36523438 C10.24670378 40.79867564 11.78490265 39.76887169 14 37 C15.52087057 32.26640284 15.51392079 29.04687569 13.3125 24.5625 C10.60858004 21.50815774 10.60858004 21.50815774 7 20 C4.69 20 2.38 20 0 20 C0 13.4 0 6.8 0 0 Z " fill="#FBFCFC" transform="translate(590,150)"/>
<path d="M0 0 C91.74 0 183.48 0 278 0 C278 16.17 278 32.34 278 49 C271.98330078 49.0093457 265.96660156 49.01869141 259.76757812 49.02832031 C239.90639342 49.06206107 220.04531246 49.11739245 200.18421173 49.18390274 C188.14038368 49.22370604 176.0966211 49.25609202 164.05273438 49.27099609 C153.55484757 49.28400586 143.05710472 49.31095343 132.55929899 49.35461307 C127.00116517 49.37724287 121.44320901 49.39290976 115.88502502 49.39188385 C110.65156852 49.39113815 105.41850498 49.40905317 100.18515015 49.44116783 C98.26636039 49.44967391 96.3475266 49.45141196 94.4287262 49.44580269 C91.80363004 49.43915194 89.17978029 49.45710857 86.55480957 49.48101807 C85.79992264 49.47325765 85.04503572 49.46549723 84.26727343 49.45750165 C78.9398206 49.54308381 74.30977729 50.73107928 70 54 C68.290189 56.84631314 67.74744491 58.88372798 67.75057983 62.19226074 C67.7489213 63.01017342 67.74726276 63.82808609 67.74555397 64.670784 C67.756528 65.55221825 67.76750202 66.4336525 67.77880859 67.34179688 C67.78537664 68.27159111 67.79194469 69.20138535 67.79871178 70.15935516 C67.9315901 80.64917113 68.70899175 91.07779023 69.5390625 101.53125 C69.70285833 103.66941687 69.86595043 105.80763776 70.02839661 107.94590759 C70.46192556 113.62649995 70.90516175 119.30629429 71.35047531 124.98597336 C71.81232578 130.89784548 72.26513709 136.81041023 72.71899414 142.72290039 C73.54213142 153.42831334 74.37316216 164.13309504 75.20816708 174.83758831 C76.01658595 185.2035529 76.81759885 195.57008157 77.61754608 205.93670273 C78.64128862 219.19683243 79.668246 232.45672145 80.70718956 245.71566963 C80.86394502 247.71731025 81.02009877 249.71899797 81.17622375 251.72068787 C81.60754965 257.20866711 82.04855336 262.69568074 82.52514648 268.17993164 C82.59934311 269.0343837 82.67353973 269.88883575 82.74998474 270.7691803 C84.11626116 282.96010167 91.01447535 294.38469181 100.34375 302.1484375 C111.98615983 310.263882 123.18461586 313.30589271 137.19451904 313.26742554 C139.01741986 313.27422221 139.01741986 313.27422221 140.87714696 313.28115618 C144.23364514 313.29159489 147.58992832 313.29313145 150.94642735 313.29076743 C154.57301415 313.29035804 158.19956939 313.30141005 161.82614136 313.31088257 C168.92512613 313.32746715 176.02407769 313.33299096 183.12308022 313.33410732 C188.89605618 313.33505901 194.66902121 313.33917534 200.44199371 313.34550858 C216.82452958 313.36311412 233.20703928 313.37234853 249.58958468 313.37084763 C250.47203345 313.37076772 251.35448223 313.3706878 252.26367188 313.37060547 C253.58896907 313.37048283 253.58896907 313.37048283 254.94103995 313.37035771 C269.25582591 313.36954502 283.57050659 313.38868007 297.8852621 313.4168822 C312.59834227 313.44563939 327.31137113 313.45942093 342.0244801 313.45769465 C350.27882412 313.45703172 358.53305777 313.46248125 366.7873764 313.48405075 C373.81586218 313.50229991 380.84418757 313.50657935 387.87268683 313.4930319 C391.45501274 313.48652097 395.03703126 313.48631649 398.61932755 313.5037384 C402.51220782 313.52247517 406.404644 313.50986564 410.29754639 313.49447632 C411.41663792 313.50476344 412.53572946 313.51505057 413.68873286 313.52564943 C425.56985545 313.42226571 435.22515728 309.58896806 445 303 C445.886875 302.4225 446.77375 301.845 447.6875 301.25 C460.39583572 288.88513282 463.85949666 272.56565746 465.11328125 255.59765625 C465.2549321 253.7913549 465.2549321 253.7913549 465.39944458 251.94856262 C465.65568255 248.67220184 465.90653075 245.39547952 466.15540695 242.11855316 C466.58616924 236.48068326 467.03373949 230.84410047 467.47802162 225.20728302 C467.64927505 223.03233171 467.8197928 220.85732349 467.99028015 218.68231201 C468.9694507 206.22268298 470.03978678 193.77178358 471.13476562 181.32180786 C473.15579416 158.31121629 475.0634562 135.29203504 476.90139771 112.26617432 C477.17282762 108.86606112 477.44638783 105.46613055 477.72189331 102.06634521 C478.04710616 98.05044634 478.36741092 94.0341843 478.68405533 90.01760101 C478.80141955 88.53780215 478.92033575 87.05812535 479.04098129 85.57859039 C481.53834555 68.39317931 481.53834555 68.39317931 476 53 C471.46636576 50.20995364 468.03252632 49.62055667 462.74868774 49.60127258 C462.04119019 49.59462576 461.33369263 49.58797893 460.60475576 49.58113068 C458.24628383 49.56255476 455.88832165 49.56510223 453.52978516 49.56762695 C451.83433316 49.55860647 450.13888768 49.54827854 448.44345093 49.53674316 C443.84889417 49.50918068 439.25446119 49.49988966 434.65983248 49.49388909 C429.85515221 49.48450349 425.05056432 49.45829993 420.24594116 49.43388367 C411.1513389 49.39022014 402.05675458 49.36167225 392.96207941 49.33856028 C382.60658231 49.31150785 372.25117815 49.26759635 361.89574742 49.22227156 C340.59720182 49.12942731 319.29866528 49.05997104 298 49 C298 32.83 298 16.66 298 0 C380.17 0 462.34 0 547 0 C547 10.61718176 546.91002622 21.04069716 546.28759766 31.60986328 C546.2102706 32.98467475 546.13339587 34.35951173 546.05692673 35.73437119 C545.89239555 38.67749183 545.72502942 41.62043143 545.55533981 44.56325912 C545.28067557 49.32877245 545.01287689 54.09465748 544.74624634 58.86062622 C544.65293998 60.52737296 544.55962284 62.19411909 544.46629524 63.86086464 C544.41942393 64.69800475 544.37255261 65.53514487 544.32426095 66.39765286 C544.17939012 68.98072242 544.03388815 71.56375574 543.8882122 74.14678001 C542.89433592 91.78202006 541.94442706 109.4195624 540.99901581 127.05745697 C540.71015562 132.44615718 540.42039425 137.83480869 540.13043213 143.22344971 C539.44508391 155.96125031 538.76043728 168.69908859 538.07623291 181.43695068 C537.53353176 191.54043569 536.99056628 201.64390632 536.44679224 211.74733365 C536.21618154 216.03253557 535.98577737 220.31774833 535.75596237 224.60299301 C535.6693772 226.21708972 535.58278493 227.83118605 535.4961853 229.44528198 C535.45391654 230.23320897 535.41164778 231.02113595 535.36809814 231.83293951 C535.03976257 237.94461863 534.70542977 244.0559598 534.3696872 250.16723597 C534.11156672 254.88803882 533.86509305 259.60932289 533.62544048 264.33109796 C533.46116678 267.54409762 533.29081489 270.7567588 533.11938024 273.96938348 C533.0401001 275.48127316 532.9634431 276.99330316 532.88967776 278.50547194 C532.01024054 296.48187503 528.39457035 310.17784719 515 323 C507.07853472 330.1648341 497.43667808 334.15693677 486.77711582 334.13422108 C486.03267665 334.13657331 485.28823748 334.13892554 484.52123955 334.14134905 C482.00678542 334.14804827 479.49238285 334.14758055 476.97792053 334.14717102 C475.16484591 334.15046909 473.35177203 334.15419454 471.53869909 334.1583125 C466.54054935 334.16834743 461.54241162 334.1720517 456.54425323 334.17470181 C451.15956286 334.17860054 445.77488204 334.18817929 440.39019775 334.19691467 C427.37681645 334.21669312 414.36343436 334.22674784 401.35004178 334.23564246 C395.22348251 334.24002381 389.09692411 334.24539109 382.97036552 334.25063133 C362.60610286 334.26764633 342.24184074 334.28214017 321.87757206 334.28938007 C316.59082603 334.29129001 311.30408 334.29321034 306.01733398 334.29516602 C304.04630866 334.29589163 304.04630866 334.29589163 302.03546464 334.2966319 C280.75269556 334.30493087 259.46998871 334.33026436 238.1872421 334.36274669 C216.34168832 334.39581636 194.49616311 334.41382883 172.65058416 334.41702431 C160.38317629 334.41918968 148.11585037 334.42794214 135.84846687 334.45348549 C125.39981696 334.47519132 114.95126891 334.4832435 104.50259901 334.47351871 C99.17253556 334.46897348 93.84268227 334.47087336 88.51264763 334.49028015 C83.62875344 334.50790867 78.74522276 334.50691644 73.86132472 334.49138286 C72.0987586 334.48900631 70.33616733 334.49333275 68.57363964 334.50521151 C52.44381441 334.60714661 40.03524186 331.60342256 27.875 320.375 C16.6389403 308.57825868 13.75308999 294.7843915 13.06445312 278.99780273 C13.00055893 277.75458252 12.93666473 276.5113623 12.87083435 275.23046875 C12.69897196 271.84126405 12.53767212 268.45187378 12.38110924 265.06194949 C12.21112498 261.43898002 12.02716716 257.81671713 11.84484863 254.1943512 C11.4989706 247.28145451 11.16518203 240.36803023 10.83589029 233.45432574 C10.47174961 225.81949835 10.09520766 218.18530291 9.71702456 210.5511601 C9.23416766 200.80219232 8.75373205 191.05311219 8.28158569 181.30361938 C8.22783777 180.1938995 8.22783777 180.1938995 8.17300403 179.06176102 C8.11940446 177.95504904 8.11940446 177.95504904 8.06472206 176.82597923 C7.26146666 160.24166452 6.42779053 143.65915795 5.57531357 127.0772953 C4.44855022 105.15520259 3.38762798 83.23237616 2.46160889 61.30090332 C2.22192638 55.62520809 1.97990674 49.94961757 1.7346077 44.27416229 C1.65280513 42.3674299 1.57321218 40.46060308 1.4937439 38.55377197 C1.18498567 31.37339702 0.75598505 24.21467752 0.19595337 17.04925537 C-0.0787617 11.37243808 0 5.68346047 0 0 Z " fill="#FBFCFC" transform="translate(190,548)"/>
<path d="M0 0 C0.76812012 0.14280396 1.53624023 0.28560791 2.32763672 0.43273926 C10.71845005 1.99653978 19.10537905 3.58016722 27.48193359 5.21875 C28.37722778 5.39332733 29.27252197 5.56790466 30.19494629 5.74777222 C31.88105369 6.07730018 33.56671737 6.40911042 35.25183105 6.74368286 C45.61661216 8.76911734 55.76916921 9.23544261 66.3125 9.25 C67.0903183 9.25233643 67.8681366 9.25467285 68.66952515 9.25708008 C78.66302839 9.2683195 88.39417007 8.83714695 98.3125 7.5 C120.84332192 4.52383884 145.25537188 3.9668197 167.60400391 8.52050781 C171.41043145 9.28225875 175.23586043 9.93132605 179.06079102 10.59277344 C181.03005618 10.93481774 182.99812799 11.28384609 184.96459961 11.64160156 C206.84658279 15.57781526 227.58829978 14.13754663 249.41650391 10.3671875 C252 10 252 10 256 10 C254.67636592 33.46715427 252.82980783 56.87090826 250.79260254 80.28582764 C250.41000462 84.69483731 250.03248369 89.10428205 249.65429688 93.51367188 C249.20871716 98.70752153 248.76073583 103.90112186 248.30215454 109.09384155 C248.15341161 110.77854319 248.00467902 112.46324574 247.85595703 114.14794922 C247.74690253 115.38250634 247.74690253 115.38250634 247.63564491 116.64200401 C247.21033883 121.49140003 246.80966946 126.34201044 246.43211079 131.19535351 C246.19567638 134.21551224 245.94782914 137.2346779 245.69837761 140.25378609 C245.58666886 141.64178333 245.48025858 143.03022 245.3798542 144.41908073 C244.4392021 157.39198407 242.09686612 168.17213891 232 177 C229.43088922 178.72252761 226.91551491 179.97877608 224 181 C223.04287015 181.34017245 222.0857403 181.68034491 221.09960651 182.03082561 C215.88905699 183.49520909 210.62720199 183.27920343 205.25395203 183.26069641 C203.4853441 183.26643473 203.4853441 183.26643473 201.68100673 183.27228898 C198.42102662 183.28080414 195.16119097 183.2803922 191.90120709 183.27610838 C188.38030323 183.27363755 184.85942567 183.28265981 181.33853149 183.29014587 C174.44528413 183.30288547 167.55207572 183.30468745 160.65881857 183.30234561 C155.05408948 183.30056129 149.44937222 183.30231455 143.84464455 183.30657005 C142.64727894 183.30746284 142.64727894 183.30746284 141.42572412 183.30837366 C139.80397917 183.30958543 138.18223422 183.31079957 136.56048927 183.31201603 C121.3563225 183.32288895 106.15217791 183.32073039 90.94800989 183.31463119 C77.04891742 183.30946355 63.14989508 183.32071387 49.25081649 183.33972941 C34.96944324 183.35911772 20.68810314 183.36736198 6.40671664 183.36360615 C-1.60722389 183.36169545 -9.62110478 183.36416881 -17.63503456 183.37832069 C-24.4582708 183.39024821 -31.28141067 183.39162413 -38.10464827 183.37953053 C-41.58338116 183.37365112 -45.0619379 183.37251617 -48.54065895 183.38453293 C-52.31826911 183.39499281 -56.09540779 183.38690494 -59.8730011 183.3742218 C-60.9635819 183.38159609 -62.05416271 183.38897037 -63.17779142 183.39656812 C-75.70189512 183.30828098 -84.1411927 179.751711 -93.2890625 171.26953125 C-99.5489909 162.96583627 -100.06628376 153.53208447 -100.9375 143.5 C-101.09749629 141.78826172 -101.2582501 140.07659412 -101.41967773 138.36499023 C-103.26020093 118.44126835 -104.70836473 98.47906882 -106.20361328 78.52685547 C-107.3834008 62.80155361 -108.60927899 47.08597188 -110.18774414 31.39477539 C-110.85642182 24.56875221 -111.14723212 17.85877821 -111 11 C-77.37182274 -4.98010172 -36.17121786 -6.72564719 0 0 Z " fill="#FBFCFC" transform="translate(391,660)"/>
<path d="M0 0 C0.91176203 -0.0072672 1.82352407 -0.01453441 2.76291525 -0.02202183 C5.84085546 -0.04037727 8.91756601 -0.02286721 11.99549866 -0.00571251 C14.21524922 -0.01146951 16.43499503 -0.01940778 18.6547308 -0.02934873 C24.77214635 -0.0503029 30.88917401 -0.03986784 37.00659132 -0.02441764 C42.92073446 -0.01430003 48.83479376 -0.02757404 54.74892536 -0.04015447 C67.59546521 -0.06651315 80.4418809 -0.06418937 93.28843263 -0.0497599 C104.53047212 -0.03719427 115.77246604 -0.03389293 127.01451111 -0.03987312 C127.75951022 -0.04025505 128.50450933 -0.04063697 129.27208417 -0.04103047 C132.29609162 -0.0425871 135.32009906 -0.0441791 138.34410646 -0.04582929 C166.72586775 -0.06113276 195.10754985 -0.0472436 223.48929892 -0.02034481 C248.71837733 0.00338418 273.94732956 0.00126108 299.17640686 -0.02264977 C327.50543562 -0.04940869 355.83439439 -0.06004755 384.16343403 -0.04458845 C387.18201 -0.0429848 390.20058599 -0.0414206 393.21916199 -0.03987312 C393.96244125 -0.03947774 394.70572052 -0.03908235 395.4715234 -0.03867498 C406.70795839 -0.03298172 417.94434287 -0.03964994 429.18077087 -0.05227089 C441.95397836 -0.06654622 454.72704201 -0.06303804 467.5002315 -0.03586717 C474.0221991 -0.02269124 480.54391008 -0.017641 487.06587601 -0.03411293 C493.02940233 -0.04894711 498.99243272 -0.04093226 504.95591366 -0.01422517 C507.12004513 -0.00861242 509.284218 -0.01154258 511.44832313 -0.02360411 C514.3773792 -0.03868425 517.30470911 -0.02334532 520.2336731 0 C521.0851595 -0.01170583 521.9366459 -0.02341166 522.81393492 -0.03547221 C526.75552578 0.0278528 528.67824963 0.22880904 531.63869381 2.93147051 C533.6177491 6.54341337 533.7099652 9.7976566 533.6832428 13.8167057 C533.68944138 14.59683022 533.69563995 15.37695473 533.70202637 16.18071938 C533.70910775 17.82466831 533.70597985 19.46868922 533.69325256 21.11260414 C533.6793759 23.62208838 533.71348757 26.12784804 533.75160217 28.6370182 C533.75255339 30.23858161 533.75069442 31.84014967 533.7457428 33.4417057 C533.75900101 34.18767006 533.77225922 34.93363441 533.78591919 35.70220375 C533.72108253 39.34535168 533.30772637 41.36905806 531.13717794 44.32711548 C527.04459147 47.44646594 524.17308072 47.32686107 519.16027069 47.2556181 C517.79894395 47.26606951 517.79894395 47.26606951 516.41011566 47.27673206 C513.35249931 47.29405152 510.29613728 47.27557081 507.23854065 47.25739479 C505.03101477 47.26243718 502.82349297 47.26966362 500.61598063 47.27889293 C494.53695177 47.29788564 488.45832318 47.28554172 482.37930417 47.26817 C476.50079633 47.25620502 470.62236564 47.26765771 464.74386238 47.2784413 C451.97582127 47.30091641 439.20791239 47.29489184 426.43987112 47.2770052 C415.26649182 47.26144915 404.09315892 47.25558251 392.91976929 47.25934601 C391.80882998 47.25970121 391.80882998 47.25970121 390.67544745 47.26006359 C387.6691434 47.26103848 384.66283937 47.26205929 381.65653535 47.26314869 C353.44447253 47.27323594 325.23249124 47.25495516 297.02044759 47.22342833 C271.9456148 47.19556684 246.87087897 47.19060365 221.79603577 47.20562172 C215.37550614 47.20944403 208.9549765 47.21323879 202.53444672 47.21679211 C201.34885058 47.21744883 201.34885058 47.21744883 200.139303 47.21811882 C179.19838496 47.22935388 158.25747407 47.22201321 137.31655836 47.20891136 C135.06378079 47.20752276 132.81100322 47.20614205 130.55822564 47.20477294 C129.06373867 47.20386356 127.5692517 47.20294088 126.07476475 47.20200483 C114.90732659 47.19520359 103.73991641 47.19787397 92.57247925 47.20495224 C79.87692618 47.2129111 67.18147075 47.2063803 54.48593915 47.1807772 C48.00437998 47.1682494 41.52298352 47.16217539 35.04141808 47.17331886 C29.11371289 47.18331792 23.18633304 47.17499424 17.25866765 47.15173768 C15.10868056 47.14655413 12.95866461 47.14818349 10.80868989 47.15713234 C7.89653274 47.16824976 4.98549061 47.15497971 2.0734024 47.13536358 C0.80776165 47.1489818 0.80776165 47.1489818 -0.48344761 47.16287515 C-4.48403639 47.10998448 -6.42152139 46.92286571 -9.88044882 44.72257084 C-13.39683237 41.04702236 -13.07298195 37.80548118 -13.1214447 32.95342445 C-13.12951645 32.19125114 -13.1375882 31.42907784 -13.14590454 30.64380836 C-13.1597432 29.02901928 -13.17046634 27.41420096 -13.17832947 25.79937172 C-13.19552537 23.33648237 -13.23940852 20.87494164 -13.28355408 18.41240883 C-13.2936828 16.84275723 -13.30219834 15.27309423 -13.3089447 13.70342445 C-13.32645279 12.96992271 -13.34396088 12.23642097 -13.36199951 11.48069191 C-13.34797187 8.15358253 -13.01321774 5.86696087 -11.408988 2.93423235 C-7.84500706 -0.31819904 -4.59004555 -0.06310177 0 0 Z " fill="#FAFBFC" transform="translate(202.88316345214844,901.3707942962646)"/>
<path d="M0 0 C1.49524441 -0.00446038 2.99048646 -0.00977703 4.4857251 -0.01586872 C8.5685901 -0.02996383 12.65137866 -0.03171364 16.73426449 -0.03127182 C21.14831859 -0.03292762 25.56234188 -0.04600849 29.97637939 -0.0574646 C39.61739317 -0.08025713 49.25838486 -0.08822937 58.89942193 -0.09329104 C64.9288333 -0.09655548 70.95823833 -0.10308254 76.9876461 -0.11029243 C93.70812555 -0.12985272 110.42859914 -0.14625966 127.14909077 -0.14916897 C128.21788057 -0.14935654 129.28667036 -0.14954411 130.38784773 -0.14973736 C132.55420665 -0.15010359 134.72056557 -0.15046729 136.88692448 -0.15082847 C137.96219152 -0.15101128 139.03745856 -0.1511941 140.14530945 -0.15138245 C141.76019809 -0.15165327 141.76019809 -0.15165327 143.40771075 -0.15192956 C160.83242644 -0.15546736 178.25701826 -0.18246763 195.68169103 -0.21988034 C213.6064088 -0.258056 231.53106526 -0.27732713 249.45582455 -0.27762848 C259.50568975 -0.27821105 269.55540722 -0.28657293 279.60523415 -0.31562614 C288.16681873 -0.34026448 296.72820176 -0.34733972 305.2898123 -0.33237862 C309.64911037 -0.32525967 314.00801145 -0.32584718 318.36726379 -0.34878922 C340.28803281 -0.45734458 361.56458639 0.07098702 381.88139343 9.46165466 C382.7366864 9.84402283 383.59197937 10.22639099 384.47319031 10.62034607 C402.20518324 18.77560829 423.97227167 32.20591113 433.00639343 50.27415466 C255.46639343 50.27415466 77.92639343 50.27415466 -104.99360657 50.27415466 C-94.59458773 34.67562641 -78.44890974 23.81682894 -61.99360657 15.27415466 C-60.84891907 14.66958435 -59.70423157 14.06501404 -58.52485657 13.44212341 C-40.31395885 4.19055776 -20.31059685 -0.03849781 0 0 Z " fill="#FCFCFC" transform="translate(301.9936065673828,80.72584533691406)"/>
<path d="M0 0 C72.6 0 145.2 0 220 0 C220 75.96314496 220 75.96314496 213.9375 83.1875 C213.43089844 83.82042969 212.92429687 84.45335937 212.40234375 85.10546875 C203.48826054 92.13527421 193.05241503 91.57282668 182.28466797 91.51757812 C180.50308665 91.52300587 178.72150982 91.53013219 176.93994141 91.53881836 C172.12598731 91.55697438 167.31237806 91.55001693 162.49841833 91.53730202 C157.44930472 91.52713735 152.40021958 91.536577 147.35110474 91.54284668 C138.87610602 91.55011167 130.40124701 91.54056415 121.92626953 91.52148438 C112.13882481 91.49970381 102.35171327 91.50678025 92.56427658 91.52879 C84.14615626 91.54695996 75.72813604 91.54949493 67.31000245 91.53903532 C62.28856135 91.53281098 57.26727673 91.53193587 52.24584579 91.54518127 C47.52606909 91.55676289 42.80672092 91.54867189 38.08699036 91.52560425 C36.35846288 91.5203301 34.62989914 91.52180872 32.90138626 91.53065491 C23.11811441 91.57609595 15.93687781 91.4132543 7.79296875 85.359375 C7.26316406 84.82828125 6.73335938 84.2971875 6.1875 83.75 C5.64480469 83.22921875 5.10210937 82.7084375 4.54296875 82.171875 C-11.34469726 59.80847677 0 27.43245362 0 0 Z " fill="#FCFCFC" transform="translate(350,151)"/>
<path d="M0 0 C124.08 0 248.16 0 376 0 C374.515 16.335 374.515 16.335 373 33 C370.009375 33.639375 367.01875 34.27875 363.9375 34.9375 C363.00929443 35.13722412 362.08108887 35.33694824 361.12475586 35.54272461 C360.37073486 35.70264893 359.61671387 35.86257324 358.83984375 36.02734375 C358.08050537 36.18968506 357.32116699 36.35202637 356.53881836 36.51928711 C347.96087704 38.14347852 339.50568048 38.24206294 330.8125 38.25 C329.66760101 38.25151062 329.66760101 38.25151062 328.49957275 38.25305176 C315.54467224 38.24149975 303.22248631 37.2213976 290.53955078 34.46533203 C263.93040218 28.71022418 235.50964957 29.33413884 208.60766602 32.91870117 C182.74441259 36.23605415 157.7480898 33.54439552 132.47412109 27.84594727 C117.58974153 24.50603152 102.35914515 21.88480266 87.07421875 21.796875 C86.25302551 21.78981537 85.43183228 21.78275574 84.58575439 21.77548218 C60.11819562 21.42014801 60.11819562 21.42014801 36 25 C35.05898438 25.22526367 34.11796875 25.45052734 33.1484375 25.68261719 C26.3975492 27.33364965 19.69569343 29.13975392 13 31 C10.93909096 31.56355746 8.87789949 32.12608327 6.81640625 32.6875 C5.8941626 32.93886719 4.97191895 33.19023438 4.02172852 33.44921875 C3.35455811 33.63097656 2.6873877 33.81273437 2 34 C1.65571891 30.77190693 1.32674429 27.54241142 1 24.3125 C0.90460938 23.41982422 0.80921875 22.52714844 0.7109375 21.60742188 C-0.01777672 14.29425413 0 7.44787466 0 0 Z " fill="#FBFCFC" transform="translate(276,617)"/>
<path d="M0 0 C1.28970703 -0.01160156 2.57941406 -0.02320313 3.90820312 -0.03515625 C30.48552851 0.0446955 54.67374909 10.78299859 73.5625 29.375 C94.86841713 52.30484374 100.91300178 78.73393824 100.78955078 109.1184082 C100.78898561 111.08089187 100.78930529 113.04337595 100.79043579 115.00585938 C100.79100617 120.29628084 100.7793032 125.58661036 100.76528788 130.87701058 C100.75272766 136.41964509 100.75160586 141.96228205 100.74923706 147.50492859 C100.74303778 157.98410055 100.72664807 168.46323045 100.70653808 178.94238394 C100.68413063 190.87957453 100.67317349 202.8167672 100.66314721 214.7539736 C100.64228039 239.29433979 100.60672865 263.83466575 100.5625 288.375 C95.2825 288.375 90.0025 288.375 84.5625 288.375 C84.56107498 285.91157639 84.55964996 283.44815277 84.55818176 280.91007996 C84.5423523 257.64968136 84.4989181 234.38944956 84.43040943 211.12914562 C84.39584809 199.17193272 84.37041556 187.21483405 84.36694336 175.25756836 C84.36389112 164.8280422 84.34323203 154.39871993 84.30197543 143.96927243 C84.28075777 138.45378417 84.26798665 132.93858496 84.27634621 127.42305565 C84.28395795 122.21658578 84.26777788 117.01069815 84.23443985 111.80433464 C84.22629156 109.90790268 84.22635433 108.01141185 84.23590279 106.11498642 C84.35361428 80.1343704 76.72966202 58.2853352 58.6875 39.0625 C54.14052537 34.71400442 48.99881038 31.50011063 43.5625 28.375 C42.79421875 27.92253906 42.0259375 27.47007812 41.234375 27.00390625 C23.73896454 17.45284034 1.13095744 14.18472565 -18.25 18.875 C-31.94330744 23.15509391 -43.58202803 30.10101829 -54.4375 39.375 C-55.11167969 39.94734375 -55.78585937 40.5196875 -56.48046875 41.109375 C-70.40554018 53.98289641 -79.09146586 73.5752867 -81.0625 92.25 C-81.18625 93.28125 -81.31 94.3125 -81.4375 95.375 C-84.54497694 96.92873847 -87.17976527 95.96028628 -90.5625 95.4375 C-91.84382812 95.24285156 -93.12515625 95.04820312 -94.4453125 94.84765625 C-95.92644531 94.61369141 -95.92644531 94.61369141 -97.4375 94.375 C-96.72466731 72.91873603 -88.34815813 52.68071057 -74.4375 36.375 C-73.70660156 35.50617188 -72.97570312 34.63734375 -72.22265625 33.7421875 C-52.76725515 11.38044353 -29.96579515 -0.26875153 0 0 Z " fill="#F9FBFC" transform="translate(743.4375,401.625)"/>
<path d="M0 0 C6.39037231 -0.02527062 12.78073183 -0.04283317 19.17114258 -0.05493164 C21.34692873 -0.05997308 23.52271147 -0.06680607 25.69848633 -0.07543945 C28.81853067 -0.08751338 31.93853038 -0.09323005 35.05859375 -0.09765625 C36.52733192 -0.10539818 36.52733192 -0.10539818 38.02574158 -0.11329651 C39.37702904 -0.11340981 39.37702904 -0.11340981 40.75561523 -0.11352539 C41.95141457 -0.11685631 41.95141457 -0.11685631 43.17137146 -0.12025452 C45 0 45 0 46 1 C46.09899039 3.04572754 46.12632308 5.0949301 46.12698364 7.14305115 C46.12854363 7.79177927 46.13010362 8.44050738 46.13171089 9.10889393 C46.13572259 11.29844865 46.13253059 13.48793491 46.12939453 15.67749023 C46.13074851 17.24087566 46.13252842 18.80426077 46.13470459 20.36764526 C46.1392797 24.6258569 46.13748895 28.88404442 46.1343255 33.1422565 C46.13180185 37.5896351 46.1341395 42.03701158 46.13571167 46.48439026 C46.13753354 53.95549899 46.1351268 61.42659785 46.13037109 68.89770508 C46.12493043 77.54492498 46.12668964 86.1921213 46.1321975 94.83934063 C46.1367305 102.25164697 46.1373782 109.6639462 46.13475883 117.07625347 C46.13319683 121.50849072 46.13300014 125.94071687 46.13629532 130.37295341 C46.13917667 134.54006304 46.13719344 138.70714218 46.13140106 142.8742485 C46.1300748 144.40695075 46.13046532 145.93965555 46.13266373 147.4723568 C46.13538053 149.55826133 46.13198755 151.64406704 46.12698364 153.72996521 C46.12660662 154.89934348 46.12622959 156.06872175 46.12584114 157.27353573 C46 160 46 160 45 162 C38.91277254 162.04934154 32.8256608 162.08569167 26.73828125 162.10986328 C24.66632053 162.11993712 22.59437407 162.13359666 20.52246094 162.15087891 C17.54879236 162.17506664 14.5753113 162.18646908 11.6015625 162.1953125 C10.20618759 162.21079636 10.20618759 162.21079636 8.78262329 162.22659302 C7.92188202 162.22674408 7.06114075 162.22689514 6.17431641 162.22705078 C5.41486725 162.231492 4.65541809 162.23593323 3.87295532 162.24050903 C2 162 2 162 0 160 C-0.24609566 157.25512505 -0.24609566 157.25512505 -0.24050903 153.68527222 C-0.24221788 153.03019499 -0.24392673 152.37511776 -0.24568737 151.70018971 C-0.24899355 149.49516652 -0.23796033 147.29044459 -0.22705078 145.08544922 C-0.22648691 143.50881965 -0.22680276 141.93218956 -0.22793579 140.3555603 C-0.22851125 136.06651364 -0.21672587 131.7775781 -0.20278788 127.48855734 C-0.19031253 123.00955864 -0.18911255 118.53055758 -0.18673706 114.05154419 C-0.18051287 105.56592037 -0.16408939 97.08034789 -0.14403808 88.59474671 C-0.12170825 78.93588284 -0.110693 69.27701655 -0.10064721 59.61813331 C-0.07972395 39.74539352 -0.04452977 19.87269999 0 0 Z " fill="#F7FAFC" transform="translate(437,301)"/>
<path d="M0 0 C16.5 0 33 0 50 0 C50.165 5.32125 50.33 10.6425 50.5 16.125 C50.57283203 17.79320801 50.64566406 19.46141602 50.72070312 21.18017578 C50.98835942 31.68885883 50.98835942 31.68885883 48.30004883 35.25512695 C46.26581067 36.74275567 44.2488759 37.87361425 42 39 C40.03063488 40.97356436 40.03063488 40.97356436 38.6875 42.9375 C38.23761719 43.54464844 37.78773438 44.15179687 37.32421875 44.77734375 C32.07784794 53.58319918 31.47419008 63.07027995 33.65625 72.98046875 C36.8312493 81.80751422 42.66309635 87.91661862 51 92 C51.16762231 100.08312038 50.57968974 107.88434358 50 116 C33.5 116 17 116 0 116 C0 77.72 0 39.44 0 0 Z " fill="#FBFCFC" transform="translate(811,709)"/>
<path d="M0 0 C6.32465741 1.43509244 10.1101379 10.01844152 13.3828125 15.20703125 C34.69544012 49.69739189 34.69544012 49.69739189 30.82421875 67.1953125 C27.83545342 76.98420444 21.16955543 84.69202702 12.23046875 89.65234375 C5.48598284 92.96669412 -1.73650615 93.96980282 -9.0546875 91.82421875 C-11.33479834 90.86150528 -13.44590698 89.7818804 -15.58984375 88.546875 C-16.20601562 88.20785156 -16.8221875 87.86882812 -17.45703125 87.51953125 C-24.69699143 82.99857834 -29.90457592 75.02528809 -32.14453125 66.859375 C-35.24405509 50.76360209 -27.19079545 34.72769202 -18.58984375 21.546875 C-18.14382813 20.86254395 -17.6978125 20.17821289 -17.23828125 19.47314453 C-15.80791552 17.2997507 -14.36081158 15.1390024 -12.90234375 12.984375 C-12.45093018 12.31712402 -11.9995166 11.64987305 -11.53442383 10.96240234 C-4.60554206 0.97251265 -4.60554206 0.97251265 0 0 Z " fill="#0144BF" transform="translate(836.58984375,860.453125)"/>
<path d="M0 0 C29.04 0 58.08 0 88 0 C88 5.94 88 11.88 88 18 C58.96 18 29.92 18 0 18 C0 12.06 0 6.12 0 0 Z " fill="#FCFCFC" transform="translate(416,262)"/>
<path d="M0 0 C0.72822464 0.0028299 1.45644928 0.00565979 2.20674133 0.00857544 C4.52992262 0.01975993 6.85271672 0.04486084 9.17578125 0.0703125 C10.75194755 0.08034456 12.3281199 0.08947002 13.90429688 0.09765625 C17.76589376 0.11799115 21.6266547 0.15714156 25.48828125 0.1953125 C25.48828125 9.1053125 25.48828125 18.0153125 25.48828125 27.1953125 C21.3615762 27.28770142 17.2375422 27.36715982 13.11035156 27.41503906 C11.70983652 27.4350188 10.30940343 27.4622127 8.90917969 27.49707031 C-5.70649805 27.85151614 -5.70649805 27.85151614 -12.51171875 23.1953125 C-15.73075977 19.54585357 -16.83456346 16.4599116 -16.57421875 11.5703125 C-15.84147744 7.13609449 -14.07294775 4.993421 -10.51171875 2.1953125 C-6.86867011 -0.23338659 -4.20449536 -0.06144425 0 0 Z " fill="#F5F8FB" transform="translate(878.51171875,757.8046875)"/>
<path d="M0 0 C0.66 0 1.32 0 2 0 C15.82642289 23.29013953 15.82642289 23.29013953 14 33 C11.63429331 37.82240211 8.75686979 40.52642771 4 43 C0.00020984 43.66663169 -1.61367041 43.21210252 -5.1875 41.25 C-8.74645129 38.40283897 -10.56182413 36.31452762 -12 32 C-13.06445088 20.07815018 -6.87343522 9.35798864 0 0 Z " fill="#F9FBFC" transform="translate(835,891)"/>
<path d="M0 0 C5.61 0 11.22 0 17 0 C17 14.85 17 29.7 17 45 C11.72 45 6.44 45 1 45 C0.67 30.15 0.34 15.3 0 0 Z " fill="#FBFCFC" transform="translate(451,483)"/>
<path d="M0 0 C2.875 2.0625 2.875 2.0625 5 5 C5 8.51955419 4.63108355 10.84920059 2.9375 13.9375 C-0.25902171 15.69043126 -3.44932174 15.51780725 -7 15 C-9 14 -9 14 -10 12 C-10.39274738 8.90711442 -10.63577985 6.95310828 -10 4 C-7.03506276 0.61150029 -4.50444973 -1.01350119 0 0 Z " fill="#043FBC" transform="translate(538,691)"/>
<path d="M0 0 C2.67387203 1.89985644 3.73158019 3.40000277 5.0625 6.375 C5 9 5 9 2.9375 12.375 C0 15 0 15 -3 15.125 C-6.47129412 13.8232647 -8.55440833 12.81613586 -11 10 C-11 6.4821295 -10.64848537 4.11683592 -8.875 1.0625 C-5.81547541 -0.6712306 -3.43182475 -0.42145216 0 0 Z " fill="#0344BE" transform="translate(332,732)"/>
<path d="M0 0 C3.4375 1 3.4375 1 5.4375 2.625 C6.90731805 6.11581787 6.42163921 8.39148956 5.4375 12 C3.19412843 14.57572291 1.80460755 14.93881541 -1.5625 15.5 C-4.5625 15 -4.5625 15 -7 12.875 C-8.5625 10 -8.5625 10 -8.5625 6.9375 C-6.87337175 1.97568576 -5.41405257 0 0 0 Z " fill="#043FBC" transform="translate(609.5625,757)"/>
<path d="M0 0 C2.5149865 1.70659798 2.9906125 2.97301095 4 5.875 C4 9 4 9 1.9375 11.875 C-1 14 -1 14 -4.0625 14.5625 C-7.70693151 13.86463014 -8.90889337 13.05623277 -11 10 C-11.5 7 -11.5 7 -11 4 C-7.52388135 -0.287213 -5.34245003 -1.56364391 0 0 Z " fill="#0843BD" transform="translate(519,745)"/>
<path d="M0 0 C2.33079067 2.6221395 3.02309671 4.05303471 2.9375 7.5625 C1.74361484 10.66660143 0.76090136 12.11096223 -2 14 C-5.77684879 14 -8.03513544 13.78395245 -11 11.375 C-12.46981805 7.88418213 -11.98413921 5.60851044 -11 2 C-7.81734231 -1.91711716 -4.58554021 -1.33397533 0 0 Z " fill="#0640BC" transform="translate(471,762)"/>
<path d="M0 0 C4.12300512 0.84142962 5.62488562 2.22711329 8.0625 5.625 C7.98343582 9.57820924 7.26486257 11.32145615 5.0625 14.625 C2.25 15.5625 2.25 15.5625 -0.9375 15.625 C-4.38994657 13.70697413 -5.65372156 12.40956393 -7 8.6875 C-6.9375 5.625 -6.9375 5.625 -5.375 2.75 C-2.9375 0.625 -2.9375 0.625 0 0 Z " fill="#0741BC" transform="translate(315.9375,685.375)"/>
<path d="M0 0 C3.04325737 2.31552191 4.709599 3.80935592 5.625 7.5625 C5 10 5 10 2.875 12.3125 C-0.49892681 14.29284835 -2.15452292 14.65454929 -6 14 C-8.375 12.375 -8.375 12.375 -10 10 C-10.61195145 6.3282913 -10.48706506 4.71186432 -8.375 1.625 C-5.24988831 -0.51323431 -3.71837535 -0.6829669 0 0 Z " fill="#043FBC" transform="translate(326,793)"/>
<path d="M0 0 C2.84223083 2.29212163 2.98284286 3.87990001 3.5 7.5 C3 11 3 11 0.875 13.5 C-2 15 -2 15 -5.125 15 C-8 14 -8 14 -9.9375 12.375 C-11.48427533 8.9175022 -10.92030612 6.61548831 -10 3 C-7.67543876 -1.00341103 -4.2574898 -0.53218622 0 0 Z " fill="#033EBB" transform="translate(607,701)"/>
<path d="M0 0 C2.4375 1 2.4375 1 4 3 C4.61819286 5.7993639 4.66214941 8.20619415 4 11 C1.9375 13.0625 1.9375 13.0625 -1 14 C-4.6875 13.875 -4.6875 13.875 -8 13 C-10.46324069 9.30513897 -10.38991688 7.36706908 -10 3 C-7.77455145 -1.05817089 -4.20489208 -0.44262022 0 0 Z " fill="#043FBC" transform="translate(504,801)"/>
<path d="M0 0 C4.39148352 1.52747253 4.39148352 1.52747253 5.875 4 C6.379958 7.9675271 6.49354451 10.10654682 4.1875 13.4375 C1.875 15 1.875 15 -0.5625 15.5 C-4.07885308 14.81388233 -5.70404909 13.62846098 -8.125 11 C-8.75 8.0625 -8.75 8.0625 -8.125 5 C-5.57998626 1.48189277 -4.43334243 0 0 0 Z " fill="#0640BD" transform="translate(359.125,766)"/>
<path d="M0 0 C2.375 1.5625 2.375 1.5625 4 4 C4.42519574 7.46230815 4.63902633 9.8347167 2.9375 12.9375 C-0.1652833 14.63902633 -2.53769185 14.42519574 -6 14 C-8.4375 12.4375 -8.4375 12.4375 -10 10 C-10.5 6.4375 -10.5 6.4375 -10 3 C-7.15718952 -0.3895048 -4.25588004 -0.62064917 0 0 Z " fill="#043EBB" transform="translate(444,717)"/>
<path d="M0 0 C4.39148352 1.52747253 4.39148352 1.52747253 5.875 4 C6.375 7.4375 6.375 7.4375 5.875 11 C3.45640437 13.69500656 1.86736035 14.80636871 -1.6875 15.5 C-5.01412957 14.81761445 -6.16578918 13.75740782 -8.125 11 C-8.6875 8.0625 -8.6875 8.0625 -8.125 5 C-5.57998626 1.48189277 -4.43334243 0 0 0 Z " fill="#043EBB" transform="translate(410.125,683)"/>
<path d="M0 0 C2.64683505 1.93147423 3.7601604 3.41539097 5 6.4375 C5 9 5 9 3.5 11.8125 C1 14 1 14 -2.5 14.5625 C-6 14 -6 14 -8.4375 12.375 C-10.47161336 9.28314769 -10.60605429 7.63632575 -10 4 C-7.21921757 -0.06422047 -4.81255755 -0.80209293 0 0 Z " fill="#063FBC" transform="translate(552,784)"/>
<path d="M0 0 C2.96600948 2.08422288 3.85326053 3.55978159 5 7 C5 10 5 10 3.4375 12.375 C0.27040565 14.48639623 -1.25955773 14.68702001 -5 14 C-7.9375 11.9375 -7.9375 11.9375 -10 9 C-10 5.3125 -10 5.3125 -9 2 C-5.50875983 -0.32749345 -4.10777749 -0.50299316 0 0 Z " fill="#0640BC" transform="translate(442,799)"/>
<path d="M0 0 C3.375 0.9375 3.375 0.9375 5.375 3.9375 C5.8125 7.375 5.8125 7.375 5.375 10.9375 C3.25 13.4375 3.25 13.4375 0.375 14.9375 C-3.16834961 14.9375 -4.88166783 14.58491834 -7.5625 12.25 C-9.04366 9.02629883 -8.67420525 7.29495681 -7.625 3.9375 C-5.24175714 0.36263571 -4.35472734 -0.07508151 0 0 Z " fill="#0540BC" transform="translate(411.625,757.0625)"/>
<path d="M0 0 C2.375 1.625 2.375 1.625 4 4 C4.61195145 7.6717087 4.48706506 9.28813568 2.375 12.375 C-0.71186432 14.48706506 -2.3282913 14.61195145 -6 14 C-8.375 12.375 -8.375 12.375 -10 10 C-10.61195145 6.3282913 -10.48706506 4.71186432 -8.375 1.625 C-5.28813568 -0.48706506 -3.6717087 -0.61195145 0 0 Z " fill="#053FBC" transform="translate(381,717)"/>
<path d="M0 0 C2.4375 1.5625 2.4375 1.5625 4 4 C3.93866496 7.4960972 3.65265114 9.93514814 1.8125 12.9375 C-0.95588471 14.56034621 -2.85545467 14.44922076 -6 14 C-8.375 12.375 -8.375 12.375 -10 10 C-10.61195145 6.3282913 -10.48706506 4.71186432 -8.375 1.625 C-5.28813568 -0.48706506 -3.6717087 -0.61195145 0 0 Z " fill="#043EBB" transform="translate(356,680)"/>
<path d="M0 0 C2.66266871 2.23320602 2.95347082 3.6200117 3.375 7.0625 C3 10 3 10 1.9375 11.8125 C-1.06485186 13.65265114 -3.5039028 13.93866496 -7 14 C-9.4375 12.4375 -9.4375 12.4375 -11 10 C-11.60605429 6.36367425 -11.47161336 4.71685231 -9.4375 1.625 C-6.07941451 -0.61372366 -3.95254396 -0.57491549 0 0 Z " fill="#043EBC" transform="translate(391,804)"/>
<path d="M0 0 C1.9375 1 1.9375 1 3 3 C3.46000079 5.76000474 3.50420748 8.24404774 3 11 C1.4375 13.0625 1.4375 13.0625 -1 14 C-4.77579201 13.93375803 -7.07482922 13.78061285 -10 11.3125 C-11.37694267 8.12832007 -10.980224 6.29075199 -10 3 C-7.61338866 -0.97768557 -4.27600952 -0.45814388 0 0 Z " fill="#0347C0" transform="translate(570,728)"/>
<path d="M0 0 C1.9375 1 1.9375 1 3 3 C3.46000079 5.76000474 3.50420748 8.24404774 3 11 C1.4375 13.0625 1.4375 13.0625 -1 14 C-4.77579201 13.93375803 -7.07482922 13.78061285 -10 11.3125 C-11.37694267 8.12832007 -10.980224 6.29075199 -10 3 C-7.61338866 -0.97768557 -4.27600952 -0.45814388 0 0 Z " fill="#0841BC" transform="translate(491,699)"/>
<path d="M0 0 C3.88020126 0.6208322 5.50788852 1.57499305 8.125 4.5 C8.75 7.5 8.75 7.5 8.125 10.5 C6 12.9375 6 12.9375 3.125 14.5 C-0.08882832 14.43572343 -2.03637435 14.03112958 -4.75 12.3125 C-6.44089731 9.58827656 -6.25957172 7.64066901 -5.875 4.5 C-4.3307374 1.23989007 -3.58085825 0.62275796 0 0 Z " fill="#033DBB" transform="translate(593.875,802.5)"/>
<path d="M0 0 C3.5 0.4375 3.5 0.4375 5.4375 1.5 C7.15989792 4.64084326 6.99148241 6.93568786 6.5 10.4375 C4.3125 12.9375 4.3125 12.9375 1.5 14.4375 C-1.39481608 14.36857581 -2.90685358 13.82611317 -5.3125 12.25 C-7.09006563 9.53687351 -6.88851935 7.61040804 -6.5 4.4375 C-4.86658084 0.78632776 -4.0205891 0.50257364 0 0 Z " fill="#063FBD" transform="translate(460.5,316.5625)"/>
<path d="M0 0 C2.375 2.1875 2.375 2.1875 4 5 C4 8.22337198 3.46243134 9.4861874 1.3125 11.875 C-1.86249229 13.41959084 -3.66802549 13.0140792 -7 12 C-9.31361802 8.52957297 -9.51020728 7.08165827 -9 3 C-6.32973416 0.03303796 -3.91385273 -0.78277055 0 0 Z " fill="#0741BD" transform="translate(452,356)"/>
<path d="M0 0 C3.4375 0.875 3.4375 0.875 4.9375 2.625 C5.57113583 5.47636126 5.42618455 7.12080734 4.4375 9.875 C2.6875 11.75 2.6875 11.75 0.4375 12.875 C-2.3626969 12.73840503 -4.04327872 12.18653277 -6.4375 10.75 C-7.5625 8.875 -7.5625 8.875 -7.4375 5.3125 C-6.22014159 0.53002055 -4.8795063 -0.17121075 0 0 Z " fill="#063EBB" transform="translate(474.5625,411.125)"/>
<path d="M0 0 C2.73251347 1.99399631 3.83247946 3.1623973 4.5 6.5 C3.8252147 9.87392649 2.83215614 11.06220896 0 13 C-3.55053329 13 -5.28808667 12.64301849 -7.9375 10.25 C-9 8 -9 8 -8.875 5.4375 C-7.19113871 0.74674354 -5.04128721 -0.86070757 0 0 Z " fill="#0941BC" transform="translate(462,443)"/>
<path d="M0 0 C1.875 1.0625 1.875 1.0625 3 3 C3.3125 6.5625 3.3125 6.5625 3 10 C1 12 1 12 -2.4375 12.3125 C-6 12 -6 12 -7.9375 10.875 C-9.50422245 8.11019567 -9.38976435 6.11811483 -9 3 C-6.79086995 -0.68188342 -4.01844539 -0.50230567 0 0 Z " fill="#0348C0" transform="translate(452,418)"/>
<path d="M0 0 C2.375 2.1875 2.375 2.1875 4 5 C3.84077523 8.42333251 3.4368763 9.5631237 1 12 C-2.4375 12.375 -2.4375 12.375 -6 12 C-8 10.375 -8 10.375 -9 8 C-8.875 4.875 -8.875 4.875 -8 2 C-4.75846834 -0.1610211 -3.76307099 -0.64247553 0 0 Z " fill="#0546BF" transform="translate(476,345)"/>
<path d="M0 0 C1.875 1.125 1.875 1.125 3 3 C3.39365568 6.14924548 3.52854531 8.11909116 1.875 10.875 C-0.88090884 12.52854531 -2.85075452 12.39365568 -6 12 C-7.875 10.875 -7.875 10.875 -9 9 C-9.39365568 5.85075452 -9.52854531 3.88090884 -7.875 1.125 C-5.11909116 -0.52854531 -3.14924548 -0.39365568 0 0 Z " fill="#043BBB" transform="translate(461,382)"/>
<path d="M0 0 C0.33 0 0.66 0 1 0 C1 8.91 1 17.82 1 27 C0.01 27 -0.98 27 -2 27 C-2.05811773 23.25006521 -2.09363593 19.50024648 -2.125 15.75 C-2.14175781 14.68652344 -2.15851562 13.62304688 -2.17578125 12.52734375 C-2.18222656 11.50253906 -2.18867187 10.47773437 -2.1953125 9.421875 C-2.20578613 8.47924805 -2.21625977 7.53662109 -2.22705078 6.56542969 C-1.99119213 3.90048059 -1.35661659 2.28136908 0 0 Z " fill="#D4E5F4" transform="translate(791,797)"/>
<path d="M0 0 C3.57001413 0.60673988 4.43273135 2.0706701 6.57421875 4.9375 C7.25355469 5.845 7.93289063 6.7525 8.6328125 7.6875 C14.44568905 15.92143379 14.44568905 15.92143379 15.57421875 18.4375 C15.24421875 19.0975 14.91421875 19.7575 14.57421875 20.4375 C8.63421875 12.0225 8.63421875 12.0225 2.57421875 3.4375 C0.26421875 4.0975 -2.04578125 4.7575 -4.42578125 5.4375 C-5.41578125 5.4375 -6.40578125 5.4375 -7.42578125 5.4375 C-3.16789406 0.57134321 -3.16789406 0.57134321 0 0 Z " fill="#0C31B5" transform="translate(836.42578125,860.5625)"/>
<path d="M0 0 C-1.6454378 1.68762851 -3.31288577 3.3540349 -5 5 C-5.33 5 -5.66 5 -6 5 C-6.042721 6.66611905 -6.04063832 8.33382885 -6 10 C-4.81575674 11.41577477 -4.81575674 11.41577477 -1.4375 11.0625 C0.2640625 11.0315625 0.2640625 11.0315625 2 11 C2.66 9.02 3.32 7.04 4 5 C4.33 5 4.66 5 5 5 C5.48038431 10.40432346 5.48038431 10.40432346 3.4375 12.9375 C-0.08943683 14.47488272 -2.33332693 14.00000175 -6 13 C-8 11.3125 -8 11.3125 -9 9 C-8.87046154 5.82630784 -8.51878767 3.77818151 -6.75 1.125 C-4.41786614 -0.37422891 -2.71628175 -0.22023906 0 0 Z " fill="#0524B1" transform="translate(568,728)"/>
<path d="M0 0 C1.875 1.125 1.875 1.125 3 3 C3.1875 6.1875 3.1875 6.1875 3 9 C2.67 9 2.34 9 2 9 C1.34 7.02 0.68 5.04 0 3 C-2.97 2.505 -2.97 2.505 -6 2 C-5.79375 2.5775 -5.5875 3.155 -5.375 3.75 C-4.91338739 6.51967567 -5.57055055 7.64561267 -7 10 C-4.69 10.33 -2.38 10.66 0 11 C0 11.33 0 11.66 0 12 C-5.4 12.36 -5.4 12.36 -7.875 10.875 C-9.52854531 8.11909116 -9.39365568 6.14924548 -9 3 C-6.79086995 -0.68188342 -4.01844539 -0.50230567 0 0 Z " fill="#0825B2" transform="translate(452,418)"/>
<path d="M0 0 C0.33 0.66 0.66 1.32 1 2 C-0.32 2.33 -1.64 2.66 -3 3 C-3 3.66 -3 4.32 -3 5 C-3.99 5.33 -4.98 5.66 -6 6 C-5.67 7.32 -5.34 8.64 -5 10 C-3.35 10.33 -1.7 10.66 0 11 C0 11.33 0 11.66 0 12 C-2.8125 12.25 -2.8125 12.25 -6 12 C-7.9375 10.375 -7.9375 10.375 -9 8 C-8.875 4.875 -8.875 4.875 -8 2 C-4.77208445 -0.1519437 -3.71599191 -0.20086443 0 0 Z " fill="#052FB5" transform="translate(476,345)"/>
<path d="M0 0 C6.31619537 -0.48586118 6.31619537 -0.48586118 9.375 1.6875 C11.21316999 4.3033573 12 5.79068567 12 9 C10.0625 11.3125 10.0625 11.3125 8 13 C8.226875 11.741875 8.45375 10.48375 8.6875 9.1875 C9.13623708 5.90763394 9.13623708 5.90763394 7.8125 2.9375 C6.04810612 1.80689165 6.04810612 1.80689165 4.0625 2.25 C3.381875 2.4975 2.70125 2.745 2 3 C0.66666667 3.33333333 -0.66666667 3.66666667 -2 4 C-1.34 2.68 -0.68 1.36 0 0 Z " fill="#0B33B7" transform="translate(325,732)"/>
<path d="M0 0 C0.66 0.33 1.32 0.66 2 1 C0.9171875 2.04800781 0.9171875 2.04800781 -0.1875 3.1171875 C-1.115625 4.02726562 -2.04375 4.93734375 -3 5.875 C-3.928125 6.77992187 -4.85625 7.68484375 -5.8125 8.6171875 C-8.22542376 10.70644278 -8.22542376 10.70644278 -8 13 C-7.34 13.66 -6.68 14.32 -6 15 C-8.31 15 -10.62 15 -13 15 C-9.54122788 9.13512553 -4.88678132 4.69882819 0 0 Z " fill="#EBF5FB" transform="translate(210,116)"/>
<path d="M0 0 C0.33 0 0.66 0 1 0 C1 6.27 1 12.54 1 19 C0.01 18.67 -0.98 18.34 -2 18 C-2 14.04 -2 10.08 -2 6 C-1.67 6 -1.34 6 -1 6 C-0.67 4.02 -0.34 2.04 0 0 Z " fill="#0B53C3" transform="translate(753,244)"/>
<path d="M0 0 C0.33 0 0.66 0 1 0 C1 6.27 1 12.54 1 19 C-2.27536172 14.63285104 -2.38894798 13.58522403 -2.3125 8.375 C-2.30863281 7.22773437 -2.30476562 6.08046875 -2.30078125 4.8984375 C-2 2 -2 2 0 0 Z " fill="#0A55C3" transform="translate(177,637)"/>
<path d="M0 0 C0.33 0 0.66 0 1 0 C1 5.94 1 11.88 1 18 C0.67 18 0.34 18 0 18 C-0.33 16.35 -0.66 14.7 -1 13 C-1.33 13 -1.66 13 -2 13 C-2.05416188 11.39620659 -2.09286638 9.79188594 -2.125 8.1875 C-2.14820313 7.29417969 -2.17140625 6.40085937 -2.1953125 5.48046875 C-2 3 -2 3 0 0 Z " fill="#0C51C3" transform="translate(162,319)"/>
<path d="M0 0 C0.66 0 1.32 0 2 0 C2 5.61 2 11.22 2 17 C1.67 17 1.34 17 1 17 C0.67 15.35 0.34 13.7 0 12 C-0.33 12 -0.66 12 -1 12 C-1.02698189 10.37509046 -1.04638757 8.75005367 -1.0625 7.125 C-1.07410156 6.22007812 -1.08570313 5.31515625 -1.09765625 4.3828125 C-1 2 -1 2 0 0 Z " fill="#0A54C3" transform="translate(168,470)"/>
<path d="M0 0 C0 2.93816921 -0.4482521 4.74728348 -1.375 7.5 C-1.63023437 8.2734375 -1.88546875 9.046875 -2.1484375 9.84375 C-3 12 -3 12 -5 15 C-6.04537095 12.29840881 -6.08156212 11.21584123 -5.0390625 8.45703125 C-4.57242188 7.58433594 -4.10578125 6.71164062 -3.625 5.8125 C-3.16351562 4.93207031 -2.70203125 4.05164063 -2.2265625 3.14453125 C-1 1 -1 1 0 0 Z " fill="#0A36B8" transform="translate(849,752)"/>
<path d="M0 0 C0.66 0.33 1.32 0.66 2 1 C1.505 1.515625 1.01 2.03125 0.5 2.5625 C-1.49649241 5.80680017 -1.21564385 8.26217334 -1 12 C-1.99 12 -2.98 12 -4 12 C-4.33292585 7.75519536 -4.43885872 5.64457375 -2 2.0625 C-1.34 1.381875 -0.68 0.70125 0 0 Z " fill="#0534B7" transform="translate(784,827)"/>
<path d="M0 0 C0.66 0 1.32 0 2 0 C2 5.28 2 10.56 2 16 C1.67 16 1.34 16 1 16 C0.67 14.35 0.34 12.7 0 11 C-0.33 11 -0.66 11 -1 11 C-1.125 3.375 -1.125 3.375 0 0 Z " fill="#0B52C2" transform="translate(183,784)"/>
<path d="M0 0 C-0.78375 0.7425 -1.5675 1.485 -2.375 2.25 C-4.56504531 4.54433318 -5.82731386 6.12158858 -7 9 C-7.66 9 -8.32 9 -9 9 C-8.4 3.6 -8.4 3.6 -6.75 1.125 C-4.41786614 -0.37422891 -2.71628175 -0.22023906 0 0 Z " fill="#032FB6" transform="translate(568,728)"/>
<path d="M0 0 C7.5 -0.375 7.5 -0.375 12 3 C8.37 3 4.74 3 1 3 C0.67 2.01 0.34 1.02 0 0 Z " fill="#1153C2" transform="translate(726,382)"/>
<path d="M0 0 C0.66 0.99 1.32 1.98 2 3 C1.34 4.32 0.68 5.64 0 7 C2.31 7.33 4.62 7.66 7 8 C7 8.33 7 8.66 7 9 C1.46153846 9.36923077 1.46153846 9.36923077 -0.875 7.5 C-1.24625 7.005 -1.6175 6.51 -2 6 C-1.34 4.02 -0.68 2.04 0 0 Z " fill="#0331B6" transform="translate(445,421)"/>
<path d="M0 0 C0 0.33 0 0.66 0 1 C-1.98 1 -3.96 1 -6 1 C-6.33 1.99 -6.66 2.98 -7 4 C-7.99 3.34 -8.98 2.68 -10 2 C-6.27511755 -0.66063032 -4.42132508 -1.38955931 0 0 Z " fill="#1F45BB" transform="translate(908,670)"/>
<path d="M0 0 C1.98 0.99 1.98 0.99 4 2 C4 2.66 4 3.32 4 4 C5.32 4.33 6.64 4.66 8 5 C8 5.66 8 6.32 8 7 C4.59679258 5.98823563 3.24274669 5.35156418 1.1875 2.375 C0.795625 1.59125 0.40375 0.8075 0 0 Z " fill="#173FBD" transform="translate(314,184)"/>
<path d="M0 0 C-1.65 1.65 -3.3 3.3 -5 5 C-5.66 4.67 -6.32 4.34 -7 4 C-6.67 2.68 -6.34 1.36 -6 0 C-2.25 -1.125 -2.25 -1.125 0 0 Z " fill="#0B4DC3" transform="translate(266,601)"/>
</svg>
